# xmcd
#
# Track frame offsets: 
#        150
#        14002
#        28464
#        40879
#        54208
#        67902
#        80832
#        92759
#        106806
#        119519
#        133026
#        145785
#        158558
#        171624
#        183358
#        197007
#        211133
#        226367
#        239313
#        250767
#        264334
#        276381
#        287562
#        301068
#        314407
#
# Disc length: 4347 seconds
#
# Revision: 6
# Processed by: cddbd v1.5.2PL0 Copyright (c) Steve Scherf et al.
# Submitted via: ExactAudioCopyFreeDBPlugin 1.0
#
DISCID=6610f919
DTITLE=Various Artist - Doughboys, Playboys and Cowboys [disc 1]
DYEAR=1999
DGENRE=Swing
TTITLE0=Fort Worth Doughboys - Sunbonnet Sue
TTITLE1=Fort Worth Doughboys - Nancy Jane
TTITLE2=Milton Brown and His Musical Brownies - Oh You Pretty Woman
TTITLE3=Milton Brown and His Musical Brownies - Brownie's Stomp
TTITLE4=Bob Wills and His Texas Playboys - Osage Stomp
TTITLE5=Bob Wills and His Texas Playboys - Who Walks in When I Walk Out
TTITLE6=Bill Boyd and His Cowboy Ramblers - Boyd's Blues
TTITLE7=Patsy Montana and the Prairie Ramblers - I Want to Be a Cowboy's
TTITLE7=Sweetheart
TTITLE8=Roy Newman and His Boys - Sadie Green (The Vamp of New Orleans)
TTITLE9=Milton Brown and His Musical Brownies - Who's Sorry Now
TTITLE10=Milton Brown and His Musical Brownies - Down by the O-H-I-O
TTITLE11=Bill Boyd and His Cowboy Ramblers - Barn Dance Rag
TTITLE12=Bob Wills and His Texas Playboys - Never No More Blues
TTITLE13=Bob Wills and His Texas Playboys - Too Busy
TTITLE14=Doug Bine and His Dixie Ramblers - Rambler's Stomp
TTITLE15=Milton Brown and His Musical Brownies - The Eyes of Texas
TTITLE16=Milton Brown and His Musical Brownies - The Yellow Rose of Texa
TTITLE16=s
TTITLE17=The Tune Wranglers - Red's Tight Like That
TTITLE18=The Tune Wranglers - Buster's Crawdad Song
TTITLE19=Jimmie Revard and His Okahoma Playboys - Big Daddy Blues
TTITLE20=The Washboard Wonders - Feather Your Nest
TTITLE21=Jimmie Revard and His Okahoma Playboys - Dirty Dog
TTITLE22=Milton Brown and His Musical Brownies - My Galveston Gal
TTITLE23=The Tune Wranglers - El Rancho Grande
TTITLE24=The Tune Wranglers - Texas Sand
EXTD=
EXTT0=
EXTT1=
EXTT2=
EXTT3=
EXTT4=
EXTT5=
EXTT6=
EXTT7=
EXTT8=
EXTT9=
EXTT10=
EXTT11=
EXTT12=
EXTT13=
EXTT14=
EXTT15=
EXTT16=
EXTT17=
EXTT18=
EXTT19=
EXTT20=
EXTT21=
EXTT22=
EXTT23=
EXTT24=
PLAYORDER=
